Coordinates
version=1
nRows=9
nColumns=36
inDegrees=yes

Units are S.I. units (second, meters, Newtons, ...)
If the header above contains a line with 'inDegrees', this indicates whether rotational values are in degrees (yes) or radians (no).

endheader
time	pelvis_tilt	pelvis_list	pelvis_rotation	pelvis_tx	pelvis_ty	pelvis_tz	hip_flexion_r	hip_adduction_r	hip_rotation_r	knee_angle_r	knee_angle_r_beta	ankle_angle_r	subtalar_angle_r	mtp_angle_r	hip_flexion_l	hip_adduction_l	hip_rotation_l	knee_angle_l	knee_angle_l_beta	ankle_angle_l	subtalar_angle_l	mtp_angle_l	lumbar_extension	lumbar_bending	lumbar_rotation	arm_flex_r	arm_add_r	arm_rot_r	elbow_flex_r	pro_sup_r	arm_flex_l	arm_add_l	arm_rot_l	elbow_flex_l	pro_sup_l
     11.76666670	     -0.27450683	    -13.30391571	     -6.70824441	     -0.30697022	      0.49819807	     -0.37596497	     98.43581753	     -0.73373999	    -17.63704915	     75.98738453	      1.32623005	     23.76439271	     14.64316886	     -7.49999987	    103.45495765	      1.50113742	     12.75676485	     76.01589709	      1.32672769	     23.20778732	     -4.94467759	     -7.49999987	    -49.35891276	     -3.10838061	    -15.02450700	    139.76902917	     10.56674151	     38.72217994	     55.79351796	     91.39657436	     85.88189816	    -30.51752987	     23.97807996	     40.05982124	     56.34497105
     11.78333330	     -1.40048061	    -13.01726016	     -6.30723464	     -0.30546768	      0.49545575	     -0.37995017	     99.64696105	     -1.49108939	    -17.72404713	     76.36689166	      1.33285370	     20.36627705	      8.67537196	     -7.49999987	    104.38119903	      2.05014375	     12.47707386	     75.84977098	      1.32382824	     19.77565053	     -5.88000563	     -7.49999987	    -50.20336793	     -3.68812049	    -12.61387224	    138.41026800	     10.80803110	     35.55460504	     53.37559708	     88.63606769	     82.32793117	    -26.78155691	     19.96392715	     41.37796525	     58.46659826
     11.80000000	     -2.28929888	    -13.43967122	     -4.99755236	     -0.28568057	      0.49634250	     -0.36900363	    100.41488771	     -2.46766100	    -17.96902614	     77.03005879	      1.34442815	     20.11672246	      7.60128560	     -7.49999987	    105.41909859	      2.50963053	     11.98023433	     75.77349831	      1.32249703	     17.00174385	     -8.29281355	     -7.49999987	    -50.96989612	     -3.87146081	    -10.54016119	    136.16105512	     10.70053450	     31.59020670	     53.14965013	     85.81112355	     78.69394146	    -23.48205086	     16.73711248	     42.72165755	     59.92445417
     11.81666670	     -3.13743389	    -14.25596721	     -3.88676814	     -0.25817431	      0.49309737	     -0.36595246	    101.83780969	     -3.52399392	    -19.01123310	     79.72457553	      1.39145634	     22.79497172	      7.29664043	     -7.49999987	    106.60291023	      2.79092962	     11.75514549	     76.58171133	      1.33660301	     18.10487620	     -8.69887596	     -7.49999987	    -50.70874479	     -3.40080996	     -8.52526964	    132.61084592	     11.10731650	     28.56272693	     54.62239501	     84.20038068	     72.40424148	    -21.21132948	     12.28756340	     45.80788561	     60.33763958
     11.83333330	     -3.35046935	    -14.32386083	     -3.35217333	     -0.26975094	      0.47224761	     -0.36792108	    103.56196571	     -4.36434923	    -19.00899689	     81.41862373	      1.42102306	     26.73510727	     11.56661735	     -7.49999987	    108.11322845	      2.43000817	     10.48403469	     77.39095132	      1.35072691	     18.89288604	     -7.92412841	     -7.49999987	    -50.76051504	     -4.13489110	     -6.20299961	    130.55202078	     10.29729634	     27.10534031	     54.60513122	     81.43997146	     67.97795979	    -18.61021640	      9.92325188	     48.35118209	     62.64662933
     11.85000000	     -3.67885343	    -14.82074376	     -2.63528517	     -0.24683683	      0.48551945	     -0.36238325	    104.47402033	     -4.88285644	    -18.73046224	     83.67746830	      1.46044733	     24.69449908	     13.55262210	     -7.49999987	    109.30208483	      1.94976649	      9.67884783	     78.96224662	      1.37815119	     18.84991041	    -10.17503803	     -7.49999987	    -50.84185645	     -4.37139326	     -4.33532512	    127.49886448	     10.04476515	     26.02038543	     57.10044353	     80.82047057	     62.50714002	    -17.24854832	      7.45163222	     51.43784534	     63.66447076
     11.86666670	     -3.72455335	    -14.84676927	     -2.03728631	     -0.26340708	      0.46853726	     -0.36187159	    105.06633426	     -5.03777617	    -18.22618661	     83.70549059	      1.46093641	     25.67143468	     14.58722004	     -7.49999987	    110.02356174	      1.37330531	      8.08947264	     79.22195131	      1.38268389	     18.05565628	     -9.84656914	     -7.49999987	    -51.15644869	     -4.98166900	     -2.17700273	    125.89915709	      8.95199243	     26.33921566	     57.79749466	     79.72937929	     59.64795677	    -15.79005915	      7.44032982	     53.25746042	     65.78726610
     11.88333330	     -3.04073060	    -15.22226505	     -0.82628074	     -0.25725021	      0.47513100	     -0.36025526	    104.87363595	     -5.67350786	    -17.52146275	     84.32478801	      1.47174519	     24.69457699	     14.53062458	     -7.49999987	    110.05577025	      1.22041208	      6.82635565	     79.32891389	      1.38455074	     15.51451266	    -10.95749719	     -7.49999987	    -52.37869894	     -5.24070327	      0.05816253	    125.37936361	      7.60578028	     27.01583437	     56.94160287	     79.77181595	     57.44393589	    -14.61782648	      8.56761081	     54.05589042	     66.54086151
     11.90000000	     -2.93475605	    -15.51800720	     -0.32786484	     -0.25917129	      0.47690382	     -0.36052791	    104.68819602	     -5.77737287	    -17.39988556	     84.29737874	      1.47126681	     24.32951061	     13.86176695	     -7.49999987	    109.87034444	      0.71669402	      5.92586385	     78.75409975	      1.37451834	     14.47368154	     -9.79353776	     -7.49999987	    -53.00742836	     -5.54676791	      2.29796582	    124.20261404	      6.52716183	     27.64472068	     56.74722280	     79.96330728	     55.47103855	    -13.76750385	      9.48509712	     54.99471471	     67.34116090
